<svg xmlns="http://www.w3.org/2000/svg" viewBox="0 0 73.343 33.069"><g fill-rule="evenodd" clip-rule="evenodd"><path fill="#63A6D2" d="M44.937 14.187c-.324.935-.779 1.651-1.36 2.151-.583.5-1.259.749-2.03.749-1.147 0-2.098-.542-2.859-1.631-.758-1.088-1.138-2.479-1.138-4.174 0-1.651.388-3.027 1.165-4.126.779-1.102 1.742-1.653 2.893-1.653.702 0 1.308.189 1.823.571.516.381.941.952 1.281 1.715l-.502.463c-.258-.673-.579-1.178-.96-1.515a1.94 1.94 0 0 0-1.322-.506c-.839 0-1.503.458-1.994 1.374-.489.918-.734 2.168-.734 3.753 0 1.529.232 2.716.7 3.561.467.845 1.122 1.266 1.964 1.266.564 0 1.063-.206 1.499-.616.435-.413.792-1.017 1.067-1.812l.507.43z"/><path fill="#FFF" d="M45.203 14.279c-.17.489-.373.921-.609 1.295-.242.383-.52.709-.832.978l-.001.001a3.38 3.38 0 0 1-1.031.613 3.4 3.4 0 0 1-1.183.204 3.4 3.4 0 0 1-1.714-.445c-.513-.292-.972-.728-1.376-1.308h-.001a6.271 6.271 0 0 1-.893-1.946 9.066 9.066 0 0 1-.296-2.389c0-.85.101-1.633.303-2.347a6.291 6.291 0 0 1 .915-1.942h.001c.415-.586.88-1.027 1.397-1.323a3.424 3.424 0 0 1 1.726-.451c.379 0 .734.052 1.066.156.333.105.642.262.926.472.281.208.537.466.765.772v.001c.225.302.427.653.605 1.054l.083.185-.149.138-.502.464-.306.282-.149-.39a4.684 4.684 0 0 0-.41-.833 2.635 2.635 0 0 0-.474-.57v-.001a1.67 1.67 0 0 0-1.134-.434c-.362 0-.684.098-.967.293-.294.202-.553.514-.778.932h-.001c-.23.433-.404.949-.521 1.547a10.908 10.908 0 0 0-.178 2.072c0 .748.056 1.409.169 1.983.111.565.276 1.046.495 1.441l.001.001c.21.38.459.663.746.847.28.181.604.271.97.271.246 0 .476-.044.689-.132.217-.089.422-.225.615-.407.2-.189.381-.423.545-.7v-.001c.17-.287.32-.62.45-.996l.135-.391.314.267.506.43.147.125-.064.182zm-.266-.092c-.324.935-.779 1.651-1.36 2.151-.583.5-1.259.749-2.03.749-1.147 0-2.098-.542-2.859-1.631-.758-1.088-1.138-2.479-1.138-4.174 0-1.651.388-3.027 1.165-4.126.779-1.102 1.742-1.653 2.893-1.653.702 0 1.308.189 1.823.571.516.381.941.952 1.281 1.715l-.502.463c-.258-.673-.579-1.178-.96-1.515a1.94 1.94 0 0 0-1.322-.506c-.839 0-1.503.458-1.994 1.374-.489.918-.314 2.224-.734 3.753-.233.849-.002 2.034.7 3.561.467.845 1.123 1.266 1.964 1.266.564 0 1.063-.206 1.499-.616.435-.413.792-1.017 1.067-1.812l.507.43z"/><path fill="#63A6D2" d="M47.194 16.813v-4.055c0-.585-.004-1.26.012-1.608.02-1.047-.083-1.01 1.19-1.01 1.086 0 1.145.053 1.162.497-.01.331.001 1.023.001 1.797v4.378h.538v-4.883c0-.811-.017-1.084.002-1.579-.066-.773.139-.87-1.96-.87-2.452 0-2.161.193-2.188.885-.006.562.01.84.01 1.762v4.686h1.233z"/><path fill="#FFF" d="M50.099 10.351c-.066-.773.139-.87-1.96-.87-2.452 0-2.161.193-2.188.885-.006.562.01.84.01 1.762v4.686h1.232v-4.055c0-.585-.004-1.26.012-1.608.02-1.047-.083-1.01 1.19-1.01 1.086 0 1.145.053 1.162.497-.01.331.001 1.023.001 1.797v4.378h.538V11.93c.001-.812-.016-1.085.003-1.579zm-2.623 2.407h.001v4.339h-1.799v-4.97a63.2 63.2 0 0 0-.006-.994c-.003-.264-.006-.479-.003-.77v-.008c.003-.069.002-.133.001-.189v-.001c-.007-.748-.01-.968 2.469-.968 2.175 0 2.181.112 2.229.943.003.048.006.102.013.187l.001.011-.001.024c-.012.31-.01.531-.007.852.002.241.005.522.005.715v5.167h-1.105v-4.662c0-.47-.001-.662-.002-.812-.002-.422-.004-.774.002-.984a.571.571 0 0 0-.014-.158c-.105-.047-.363-.057-.866-.057h-.126v-.001c-.471 0-.701-.001-.751.042-.022.019-.024.173-.028.47v.001l-.003.217v.009c-.013.289-.012.802-.012 1.299l.002.298z"/><path fill="#63A6D2" d="M51.657 10.861c0-.54.066-.893.196-1.06.132-.167.408-.249.828-.249h2.615v.63h-1.87c-.222 0-.37.042-.442.124-.073.082-.109.235-.109.455v1.828h1.983v.712h-1.983v2.309c0 .22.038.37.113.452.075.079.249.118.525.118h1.845v.63h-2.871c-.307 0-.523-.085-.647-.257-.122-.17-.183-.523-.183-1.051v-4.641z"/><path fill="#FFF" d="M51.374 10.861c0-.283.018-.524.055-.72.041-.222.109-.394.202-.514l.001-.002a.865.865 0 0 1 .447-.282 2.14 2.14 0 0 1 .603-.074h2.898v1.196h-2.153a.788.788 0 0 0-.2.02l-.031.008a.173.173 0 0 0-.018.054.993.993 0 0 0-.018.215v1.545h1.984v1.278H53.16v2.026a.96.96 0 0 0 .019.209.206.206 0 0 0 .017.05c.004.001.015.001.042.007.064.014.156.022.276.022h2.129v1.196h-3.155c-.187 0-.352-.028-.495-.084v.001a.832.832 0 0 1-.381-.292 1.24 1.24 0 0 1-.187-.507 4.287 4.287 0 0 1-.05-.709v-4.643h-.001zm.283 0c0-.54.066-.893.196-1.06.132-.167.408-.249.828-.249h2.615v.63h-1.87c-.222 0-.37.042-.442.124-.073.082-.109.235-.109.455v1.828h1.983v.712h-1.983v2.309c0 .22.038.37.113.452.075.079.249.118.525.118h1.845v.63h-2.871c-.307 0-.523-.085-.647-.257-.122-.17-.183-.523-.183-1.051v-4.641z"/><path fill="#63A6D2" d="M57.873 16.813h-1.218V4.957h1.218v8.281l2.253-3.686h.683l-1.885 3.073 2.472 4.188H59.87l-1.997-3.394z"/><path fill="#FFF" d="M57.873 17.097h-1.502V4.674h1.786v7.558l1.727-2.826.083-.136h1.347l-.264.43-1.796 2.928 2.385 4.042.252.427h-2.182l-.083-.141-1.469-2.498v2.638h-.284v.001zm0-.284h-1.219V4.957h1.219v8.281l2.252-3.686h.683l-1.885 3.072 2.472 4.188H59.87l-1.996-3.394v3.395z"/><path fill="#63A6D2" d="M62.922 16.813v-6.63h-1.17v-.631h3.552v.631h-1.169v6.63z"/><path fill="#FFF" d="M62.639 16.813v-6.347H61.47V9.269h4.119v1.196h-1.17v6.63h-1.78v-.282zm.283 0v-6.631h-1.17v-.63h3.552v.63h-1.17v6.631h-1.212z"/><path fill="#63A6D2" d="M67.762 16.183c.201.031.357.054.47.065.111.011.207.017.288.017.583 0 1.018-.221 1.306-.662.288-.441.431-1.113.431-2.012 0-1.17-.156-2.029-.47-2.58-.312-.551-.805-.828-1.475-.828h-.551v6h.001zm0 .63v2.947h-1.219V9.552h1.906c.922 0 1.661.342 2.218 1.026.557.684.835 1.583.835 2.69 0 1.082-.267 1.956-.803 2.626-.536.667-1.243 1-2.118 1a5.708 5.708 0 0 1-.819-.081z"/><path fill="#FFF" d="M68.045 15.94l.022.003h.001c.078.011.142.019.191.024.096.01.183.015.261.015.48 0 .837-.178 1.069-.533.125-.19.219-.437.284-.736a5.45 5.45 0 0 0 .101-1.12c0-.573-.037-1.064-.111-1.472-.072-.397-.179-.721-.321-.969a1.305 1.305 0 0 0-.496-.513 1.472 1.472 0 0 0-.733-.171h-.268v5.472zm1.742-4.929c-.312-.551-.805-.828-1.475-.828h-.551v6c.201.031.357.054.47.065.111.011.207.017.288.017.583 0 1.018-.221 1.306-.662.288-.441.431-1.113.431-2.012.001-1.17-.155-2.029-.469-2.58zm-2.025 5.802v2.947h-1.219V9.552h1.906c.922 0 1.661.342 2.218 1.026.557.684.835 1.583.835 2.69 0 1.082-.267 1.956-.803 2.626-.536.667-1.243 1-2.118 1a5.708 5.708 0 0 1-.819-.081zm.283.326v2.906h-1.787V9.269h2.19c.502 0 .957.095 1.365.283.409.189.766.472 1.073.848.301.37.527.797.677 1.28.148.477.222 1.008.222 1.589a5.27 5.27 0 0 1-.214 1.55 3.726 3.726 0 0 1-.652 1.252v.001a2.916 2.916 0 0 1-1.031.829 3.025 3.025 0 0 1-1.579.264 8.899 8.899 0 0 1-.264-.026z"/><path fill="#63A6D2" d="M20.476 11.708l5.413.001-.001-.003h-5.413l.001.002zM17.45.283c5.191 0 9.728 2.794 12.193 6.959v-.004l4.926 7.254-5.141 7.512V22c-2.509 3.97-6.935 6.608-11.979 6.608-7.821 0-14.162-6.341-14.162-14.162S9.629.283 17.45.283zm12.016 9.251l1.998 2.861 1.462 2.094-1.473 2.085-2.091 2.959-1.662 2.353v-.068l-.044.06v-4.693h-.26l-.114.001-1.274.015h-8.562c-1.546 0-2.719-1.169-2.726-2.713.007-1.545 1.261-2.763 2.808-2.763h.008l8.36.002H27.7v-.017h-.417l-.001-.003h.374V7.011l.044.06v-.066l1.766 2.529zm-3.151-4.077v3.935a10.2 10.2 0 0 0-8.865-5.148c-5.632 0-10.202 4.569-10.202 10.201 0 5.635 4.57 10.205 10.202 10.205a10.2 10.2 0 0 0 8.865-5.152v3.933a12.585 12.585 0 0 1-8.865 3.639c-6.971 0-12.624-5.654-12.624-12.627 0-6.97 5.653-12.624 12.624-12.624a12.596 12.596 0 0 1 8.865 3.638zm-.989 13.067a8.87 8.87 0 0 1-7.876 4.791c-4.894 0-8.868-3.974-8.868-8.871a8.87 8.87 0 1 1 16.743-4.078H17.45a4.085 4.085 0 0 0-4.08 4.08 4.085 4.085 0 0 0 4.255 4.078h7.701zm2.374-1.341l-.133.001h.039l.094-.001z"/><path fill="#FFF" d="M20.476 11.708l5.413.001-.001-.003h-5.413l.001.002zM17.45.283c5.191 0 9.728 2.794 12.193 6.959v-.004l4.926 7.254-5.141 7.512V22c-2.509 3.97-6.935 6.608-11.979 6.608-7.821 0-14.162-6.341-14.162-14.162S9.629.283 17.45.283zm12.016 9.251L27.7 7.005v.066l-.044-.06v4.695h-.374l.001.003h.417v.019h-1.805l-8.36-.002h-.008c-1.546 0-2.801 1.218-2.808 2.763.007 1.544 1.179 2.713 2.726 2.713h8.562l1.274-.015.114-.001h.26v4.693l.044-.06v.068l1.662-2.352 2.091-2.959 1.473-2.085-1.462-2.094-1.997-2.863zm-3.151-4.077A12.587 12.587 0 0 0 17.45 1.82c-6.971 0-12.624 5.654-12.624 12.624 0 6.973 5.653 12.627 12.624 12.627a12.58 12.58 0 0 0 8.865-3.639v-3.933a10.2 10.2 0 0 1-8.865 5.152c-5.632 0-10.202-4.57-10.202-10.205 0-5.632 4.57-10.201 10.202-10.201 3.796 0 7.107 2.074 8.865 5.148V5.457zm-.989 13.067h-7.7a4.084 4.084 0 0 1-4.255-4.078c0-2.25 1.831-4.08 4.08-4.08h7.875a8.87 8.87 0 0 0-16.743 4.078c0 4.897 3.974 8.871 8.868 8.871a8.871 8.871 0 0 0 7.875-4.791zm2.374-1.341l-.094.001h-.039l.133-.001zM17.45 0c2.599 0 5.038.688 7.145 1.89a14.525 14.525 0 0 1 5.269 5.17l.013.019 4.926 7.254.109.16-.109.158-5.141 7.512-.042.061a14.534 14.534 0 0 1-5.208 4.879 14.375 14.375 0 0 1-6.963 1.788A14.4 14.4 0 0 1 7.235 24.66a14.401 14.401 0 0 1-4.231-10.214c0-3.988 1.617-7.601 4.231-10.215A14.404 14.404 0 0 1 17.45 0zm11.785 9.696l-1.251-1.792v.025l-.045-.06v2.497h-.001v1.061h.046v.586h-2.089v-.001l-8.36-.002v.001h-.008c-.699 0-1.331.275-1.787.724a2.467 2.467 0 0 0-.738 1.755c.003.693.267 1.302.703 1.736.435.433 1.045.694 1.741.694v.001l.008-.001h8.554v.001l1.27-.015.114-.001.003-.001h.169v-.001h.002V16.9h.039v.001l.092-.001.286-.003v.564l-.045.001v3.555l.045-.06v.038l1.095-1.55.052-.074 2.091-2.959 1.359-1.924-1.348-1.931-1.997-2.861zm-3.204-4.12a12.303 12.303 0 0 0-8.581-3.471A12.306 12.306 0 0 0 8.724 5.72a12.303 12.303 0 0 0-3.615 8.725 12.31 12.31 0 0 0 3.614 8.728l.001-.001a12.305 12.305 0 0 0 8.726 3.616c1.658 0 3.238-.327 4.68-.918a12.352 12.352 0 0 0 3.902-2.556v-2.842a10.563 10.563 0 0 1-3.324 3.049 10.428 10.428 0 0 1-5.258 1.413 10.455 10.455 0 0 1-7.414-3.073v-.001a10.459 10.459 0 0 1-3.072-7.415 10.45 10.45 0 0 1 3.072-7.413 10.453 10.453 0 0 1 7.413-3.072c1.915 0 3.712.515 5.257 1.413a10.566 10.566 0 0 1 3.324 3.046V5.576h.001zm-1.186 13.231h-7.22v-.001l-.079.003h-.006l-.088.001-.002.001a4.353 4.353 0 0 1-3.085-1.28v-.001a4.35 4.35 0 0 1-1.279-3.084 4.35 4.35 0 0 1 1.28-3.084 4.35 4.35 0 0 1 3.084-1.28h7.395a8.65 8.65 0 0 0-2.943-2.979A8.552 8.552 0 0 0 17.45 5.86a8.558 8.558 0 0 0-6.069 2.516h-.001a8.554 8.554 0 0 0-2.514 6.068c0 2.371.962 4.518 2.515 6.072a8.555 8.555 0 0 0 6.069 2.515c1.63 0 3.154-.455 4.452-1.244a8.636 8.636 0 0 0 2.943-2.98z"/><path fill="#251A5D" d="M32.986 20.943h39.921l-.819 1.828H33.77c-.036.082-.068.159-.074.17l-.055.105c-3.06 5.791-9.142 9.74-16.143 9.74-7.821 0-14.494-4.926-17.09-11.843H2.35c2.498 5.898 8.341 10.037 15.148 10.037s12.65-4.139 15.148-10.037h.34z"/><path fill="#FFF" d="M32.986 20.66h40.358l-.179.399-.819 1.827-.076.168H33.955v.001l-.009.017-.055.105v.001a18.635 18.635 0 0 1-6.84 7.239 18.43 18.43 0 0 1-9.553 2.653 18.445 18.445 0 0 1-10.537-3.289 18.607 18.607 0 0 1-6.818-8.738L0 20.66h2.537l.073.174a16.232 16.232 0 0 0 5.975 7.185 16.086 16.086 0 0 0 8.913 2.678c3.294 0 6.359-.986 8.913-2.678a16.226 16.226 0 0 0 5.975-7.185l.074-.174h.526zm0 .283h39.921l-.819 1.828H33.77c-.036.082-.068.159-.074.17l-.055.105c-3.06 5.791-9.142 9.74-16.143 9.74-7.821 0-14.494-4.926-17.09-11.843H2.35c2.498 5.898 8.341 10.037 15.148 10.037s12.65-4.139 15.148-10.037h.34z"/><path fill="#63A6D2" d="M48.834 28.827c-.184.505-.443.893-.773 1.162-.33.271-.714.406-1.153.406-.651 0-1.193-.294-1.623-.883-.431-.589-.647-1.343-.647-2.26 0-.894.221-1.639.663-2.236.441-.595.989-.894 1.642-.894.399 0 .744.103 1.036.309.292.207.534.516.726.928l-.284.251c-.147-.365-.328-.638-.545-.821a1.133 1.133 0 0 0-.751-.272c-.477 0-.853.248-1.132.744-.278.497-.417 1.174-.417 2.033 0 .828.132 1.471.397 1.929.265.458.638.686 1.116.686.32 0 .604-.112.851-.334.247-.223.45-.549.606-.98l.288.232z"/><path fill="#FFF" d="M49.1 28.923a3.49 3.49 0 0 1-.361.729 2.493 2.493 0 0 1-.498.555 2.051 2.051 0 0 1-1.332.471c-.372 0-.716-.086-1.03-.257a2.511 2.511 0 0 1-.82-.743h-.001c-.468-.639-.702-1.448-.702-2.427 0-.472.059-.909.178-1.309.12-.405.301-.771.541-1.096.245-.33.524-.581.834-.75a2.125 2.125 0 0 1 1.035-.259c.225 0 .438.03.638.089h.001c.202.06.389.151.56.272l.001.001c.167.118.321.267.459.444.136.174.256.372.359.595l.089.19-.158.141-.284.251-.3.265-.15-.372a2.373 2.373 0 0 0-.22-.428 1.295 1.295 0 0 0-.244-.281v.001a.892.892 0 0 0-.265-.156.9.9 0 0 0-.305-.05.864.864 0 0 0-.485.138v.001c-.15.098-.284.252-.4.459-.124.223-.218.49-.282.799a5.5 5.5 0 0 0-.098 1.096c0 .397.031.747.093 1.047.06.291.149.538.266.74.108.187.236.326.381.415.14.086.304.129.49.129a.93.93 0 0 0 .349-.064c.111-.043.216-.11.313-.197.103-.093.199-.211.285-.351.09-.145.171-.317.243-.515l.135-.373.309.25.287.233.156.127-.067.19zm-.266-.096c-.184.505-.443.893-.773 1.162-.33.271-.714.406-1.153.406-.651 0-1.193-.294-1.623-.883-.431-.589-.647-1.343-.647-2.26 0-.894.221-1.639.663-2.236.441-.595.989-.894 1.642-.894.399 0 .744.103 1.036.309.292.207.534.516.726.928l-.284.251c-.147-.365-.328-.638-.545-.821a1.133 1.133 0 0 0-.751-.272c-.477 0-.853.248-1.132.744-.278.497-.417 1.174-.417 2.033 0 .828.132 1.471.397 1.929.265.458.638.686 1.116.686.32 0 .604-.112.851-.334.247-.223.45-.549.606-.98l.288.232z"/><path fill="#63A6D2" d="M49.437 27.023c0-.292.038-.484.112-.572.074-.09.231-.135.469-.135h1.486v.34H50.44c-.125 0-.208.023-.251.067-.041.044-.062.127-.062.247v.99h1.127v.386h-1.127v1.252c0 .119.022.2.064.243.042.044.142.066.298.066h1.049v.34h-1.63c-.175 0-.297-.046-.367-.139-.069-.092-.104-.281-.104-.568v-2.517z"/><path fill="#FFF" d="M49.153 27.023c0-.163.011-.302.034-.416a.754.754 0 0 1 .142-.336.612.612 0 0 1 .314-.194v.001a1.38 1.38 0 0 1 .374-.046h1.77v.908H50.44l-.029.001-.001.03v.707h1.128v.952H50.41v.992a.892.892 0 0 0 .078.003h1.332v.906h-1.913a.915.915 0 0 1-.323-.053v-.001a.602.602 0 0 1-.27-.198.788.788 0 0 1-.13-.331 2.293 2.293 0 0 1-.032-.407v-2.518h.001zm.284 0c0-.292.038-.484.112-.572.074-.09.231-.135.469-.135h1.486v.34H50.44c-.125 0-.208.023-.251.067-.041.044-.062.127-.062.247v.99h1.127v.386h-1.127v1.252c0 .119.022.2.064.243.042.044.142.066.298.066h1.049v.34h-1.63c-.175 0-.297-.046-.367-.139-.069-.092-.104-.281-.104-.568v-2.517z"/><path fill="#63A6D2" d="M52.964 29.908c.114.017.202.029.267.035.064.006.119.009.164.009.332 0 .579-.119.743-.358.164-.24.245-.603.245-1.092 0-.634-.088-1.101-.267-1.399-.178-.298-.457-.448-.838-.448h-.313v3.253h-.001zm0 .339v1.598h-.691v-5.529h1.082c.522 0 .942.185 1.258.556.316.37.474.857.474 1.457 0 .587-.151 1.06-.455 1.422-.304.361-.706.542-1.202.542a2.91 2.91 0 0 1-.338-.028 3.616 3.616 0 0 0-.128-.018z"/><path fill="#FFF" d="M53.248 29.66l.012.001.08.006.055.002v-.001c.232 0 .402-.078.509-.234.061-.09.109-.209.141-.354.035-.159.054-.351.054-.577 0-.302-.02-.56-.061-.773a1.48 1.48 0 0 0-.165-.481.605.605 0 0 0-.234-.232h-.001a.759.759 0 0 0-.361-.078h-.029v2.721zm-.284.248c.114.017.202.029.267.035.064.006.119.009.164.009.332 0 .579-.119.743-.358.164-.24.245-.603.245-1.092 0-.634-.088-1.101-.267-1.399-.178-.298-.457-.448-.838-.448h-.313v3.253h-.001zm0 .339v1.598h-.691v-5.529h1.082c.522 0 .942.185 1.258.556.316.37.474.857.474 1.457 0 .587-.151 1.06-.455 1.422-.304.361-.706.542-1.202.542a2.91 2.91 0 0 1-.338-.028 3.616 3.616 0 0 0-.128-.018zm.284.319v1.561H51.99v-6.095h1.365c.3 0 .574.054.82.163.249.11.467.274.653.492.182.214.319.46.409.738.088.272.133.574.133.903 0 .321-.043.615-.128.882a2.1 2.1 0 0 1-.394.722h-.001c-.18.214-.39.375-.628.483a1.907 1.907 0 0 1-.953.153l-.018-.002z"/><path fill="#63A6D2" d="M56.185 30.04a2.144 2.144 0 0 0 .307.022c.342 0 .589-.069.74-.209.151-.139.227-.366.227-.679 0-.38-.085-.666-.256-.854-.17-.188-.426-.283-.768-.283-.033 0-.095.003-.188.008l-.056.003v.592h-.005v1.4h-.001zm.331-3.573a1.125 1.125 0 0 0-.133-.007h-.193v1.261l.1.009.093.003c.189 0 .331-.046.424-.139.093-.094.14-.235.14-.425 0-.247-.051-.429-.153-.545a.49.49 0 0 0-.278-.157zm-.07-.15c.315.002.568.08.761.233.195.156.292.36.292.612a.733.733 0 0 1-.281.598.92.92 0 0 1-.174.111c.252.053.463.149.634.288.277.224.415.529.415.913 0 .349-.133.633-.398.85-.266.217-.612.326-1.039.326h-1.089v-3.933h.795c.028 0 .056 0 .084.002z"/><path fill="#FFF" d="M56.469 29.779l.024.001v-.001c.145 0 .267-.014.365-.041h.001a.435.435 0 0 0 .183-.091l.001-.001a.362.362 0 0 0 .092-.154v-.001c.027-.082.041-.188.041-.316 0-.164-.017-.303-.052-.419a.625.625 0 0 0-.13-.246h-.001a.513.513 0 0 0-.207-.136.98.98 0 0 0-.312-.053v.603h-.005v.855zm-.284.261a2.144 2.144 0 0 0 .307.022c.342 0 .589-.069.74-.209.151-.139.227-.366.227-.679 0-.38-.085-.666-.256-.854-.17-.188-.426-.283-.768-.283-.033 0-.095.003-.188.008l-.056.003v.592h-.005v1.4h-.001zm.331-3.573a1.125 1.125 0 0 0-.133-.007h-.193v1.261l.1.009.093.003c.189 0 .331-.046.424-.139.093-.094.14-.235.14-.425 0-.247-.051-.429-.153-.545a.49.49 0 0 0-.278-.157zm-.07-.15c.315.002.568.08.761.233.195.156.292.36.292.612a.733.733 0 0 1-.281.598.92.92 0 0 1-.174.111c.252.053.463.149.634.288.277.224.415.529.415.913 0 .349-.133.633-.398.85-.266.217-.612.326-1.039.326h-1.089v-3.933h.795c.028 0 .056 0 .084.002zm.028.431v.695c.063-.008.108-.025.134-.051v-.001a.164.164 0 0 0 .037-.064v-.001a.927.927 0 0 0-.007-.405v-.001a.305.305 0 0 0-.054-.113.178.178 0 0 0-.045-.036.437.437 0 0 0-.065-.023zm-.022-.714c.184.002.352.026.504.072.159.049.302.123.427.223v-.001c.131.105.231.229.299.371.067.142.101.297.101.463a1.058 1.058 0 0 1-.187.606c.093.049.18.106.26.172.172.139.302.306.389.498l.001.001c.086.19.129.401.129.633 0 .215-.042.413-.127.594-.085.18-.21.339-.376.474-.161.132-.346.23-.553.295a2.217 2.217 0 0 1-.665.095h-1.373v-4.499h1.078l.006.001.087.002z"/><path fill="#63A6D2" d="M60.643 30.247h.298v-3.261c0-.279-.036-.479-.108-.603a.37.37 0 0 0-.343-.187.502.502 0 0 0-.354.164 1.62 1.62 0 0 0-.316.496l-.812 1.829c-.002.006-.007.012-.016.018a.044.044 0 0 1-.027.009c-.019 0-.033-.008-.041-.023a.212.212 0 0 1-.012-.089v-2.286h-.298v3.599c0 .182.017.305.051.367.035.063.093.093.176.093.059 0 .11-.018.151-.055a.573.573 0 0 0 .119-.185l1.429-3.105a.163.163 0 0 1 .026-.043c.006-.008.014-.01.024-.01.022 0 .035.006.042.018a.218.218 0 0 1 .011.089v3.165z"/><path fill="#FFF" d="M60.941 30.531h-.581V28.1l-.992 2.154a1.11 1.11 0 0 1-.076.143.642.642 0 0 1-.108.132l-.003.003a.482.482 0 0 1-.159.094l.001.001a.518.518 0 0 1-.181.031.512.512 0 0 1-.238-.056.44.44 0 0 1-.185-.183l-.001-.002c-.057-.106-.086-.274-.086-.503v-3.883h.866v1.536l.366-.825v-.002c.054-.12.112-.229.174-.326.065-.101.133-.187.203-.255a.904.904 0 0 1 .251-.178.706.706 0 0 1 .638.015.643.643 0 0 1 .249.245l.002.002c.051.089.089.201.113.335l.001.001c.021.117.031.253.031.408v3.544h-.285zm-.298-.284h.298v-3.261c0-.279-.036-.479-.108-.603a.37.37 0 0 0-.343-.187.502.502 0 0 0-.354.164 1.62 1.62 0 0 0-.316.496l-.812 1.829c-.002.006-.007.012-.016.018a.044.044 0 0 1-.027.009c-.019 0-.033-.008-.041-.023a.212.212 0 0 1-.012-.089v-2.286h-.298v3.599c0 .182.017.305.051.367.035.063.093.093.176.093.059 0 .11-.018.151-.055a.573.573 0 0 0 .119-.185l1.429-3.105a.163.163 0 0 1 .026-.043c.006-.008.014-.01.024-.01.022 0 .035.006.042.018a.218.218 0 0 1 .011.089v3.165z"/><path fill="#63A6D2" d="M64.411 29.382c-.132.317-.306.562-.521.735a1.118 1.118 0 0 1-.716.258c-.425 0-.783-.199-1.071-.598-.288-.4-.432-.903-.432-1.514 0-.58.145-1.069.438-1.468.292-.4.653-.599 1.083-.599.275 0 .513.075.715.227.202.151.355.369.459.654l-.259.176c-.092-.247-.204-.43-.334-.553a.668.668 0 0 0-.467-.182c-.293 0-.518.15-.674.449-.156.299-.234.735-.234 1.306 0 .52.082.941.246 1.263.165.321.376.482.634.482a.71.71 0 0 0 .498-.213c.15-.141.279-.349.388-.623l.247.2z"/><path fill="#FFF" d="M64.673 29.491a2.477 2.477 0 0 1-.26.476 1.83 1.83 0 0 1-.345.371h-.001a1.484 1.484 0 0 1-.421.24 1.456 1.456 0 0 1-1.195-.104 1.787 1.787 0 0 1-.576-.531 2.43 2.43 0 0 1-.367-.765 3.337 3.337 0 0 1-.119-.914c0-.316.041-.611.121-.883.082-.275.206-.526.372-.753.17-.233.365-.41.582-.53.223-.123.467-.185.73-.185.166 0 .323.023.47.07v.001c.151.048.29.119.414.212a1.5 1.5 0 0 1 .328.341v.001c.092.131.168.278.228.441l.076.207-.183.125-.259.176-.298.202-.126-.337a1.65 1.65 0 0 0-.129-.275h-.001a.819.819 0 0 0-.133-.171v-.001a.391.391 0 0 0-.273-.104.407.407 0 0 0-.231.065.613.613 0 0 0-.193.231 1.653 1.653 0 0 0-.147.469h-.001a4.083 4.083 0 0 0-.053.706c0 .243.019.461.056.651v.001c.035.183.089.344.159.483h-.001c.062.121.13.21.202.265a.292.292 0 0 0 .181.062c.053 0 .104-.01.15-.03a.511.511 0 0 0 .153-.105l.002-.001a.976.976 0 0 0 .162-.204v-.001c.057-.091.109-.197.156-.316l.142-.357.298.241.248.2.166.133-.084.197zm-.262-.109c-.132.317-.306.562-.521.735a1.118 1.118 0 0 1-.716.258c-.425 0-.783-.199-1.071-.598-.288-.4-.432-.903-.432-1.514 0-.58.145-1.069.438-1.468.292-.4.653-.599 1.083-.599.275 0 .513.075.715.227.202.151.355.369.459.654l-.259.176c-.092-.247-.204-.43-.334-.553a.668.668 0 0 0-.467-.182c-.293 0-.518.15-.674.449-.156.299-.234.735-.234 1.306 0 .52.082.941.246 1.263.165.321.376.482.634.482a.71.71 0 0 0 .498-.213c.15-.141.279-.349.388-.623l.247.2z"/></g></svg>